<svg xmlns="http://www.w3.org/2000/svg" width="933.333" height="933.333" preserveAspectRatio="xMidYMid meet" version="1.0" viewBox="0 0 700 700"><metadata>Created by potrace 1.11, written by Peter Selinger 2001-2013</metadata><g fill="#000" stroke="none"><path d="M0 5055 l0 -1945 3500 0 3500 0 0 390 0 390 -1555 0 -1555 0 0 385 0 385 1555 0 1555 0 0 395 0 395 -1555 0 -1555 0 0 385 0 385 1555 0 1555 0 0 390 0 390 -3500 0 -3500 0 0 -1945z" transform="translate(0.000000,700.000000) scale(0.100000,-0.100000)"/><path d="M0 1945 l0 -395 3500 0 3500 0 0 395 0 395 -3500 0 -3500 0 0 -395z" transform="translate(0.000000,700.000000) scale(0.100000,-0.100000)"/><path d="M0 390 l0 -390 3500 0 3500 0 0 390 0 390 -3500 0 -3500 0 0 -390z" transform="translate(0.000000,700.000000) scale(0.100000,-0.100000)"/></g></svg>